<svg width="98.000000" height="32.000000" viewBox="0 0 98 32" fill="none" xmlns="http://www.w3.org/2000/svg" xmlns:xlink="http://www.w3.org/1999/xlink">
	<desc>
			Created with Pixso.
	</desc>
	<defs>
		<clipPath id="clip1_13">
			<rect id="IMAGE" width="98.000000" height="32.000000" fill="white" fill-opacity="0"/>
		</clipPath>
	</defs>
	<g clip-path="url(#clip1_13)">
		<path id="Vector" d="M23.01 2.66L26.48 2.66L26.48 29.33L23.01 29.33L23.01 2.66Z" fill="#84A17D" fill-opacity="1.000000" fill-rule="nonzero"/>
		<path id="Vector" d="M0 7.66L19.54 7.66L19.54 14.33L0 14.33L0 7.66Z" fill="#84A17D" fill-opacity="1.000000" fill-rule="nonzero"/>
		<path id="Vector" d="M7.4 17.66L19.54 17.66L19.54 24.33L7.4 24.33L7.4 17.66Z" fill="#84A17D" fill-opacity="1.000000" fill-rule="nonzero"/>
		<path id="Vector" d="M40.09 25.24L36.46 25.24L43.73 4.93L47.34 4.93L54.6 25.24L50.89 25.24L49.26 20.55L41.75 20.55L40.09 25.24ZM45.08 10.99L42.77 17.54L48.24 17.54L45.93 10.99C45.86 10.71 45.78 10.43 45.68 10.15C45.59 9.87 45.54 9.63 45.52 9.43C45.48 9.61 45.42 9.86 45.33 10.15C45.25 10.43 45.17 10.71 45.08 10.99Z" fill="#F4F5F6" fill-opacity="1.000000" fill-rule="nonzero"/>
		<path id="Vector" d="M59.47 25.24L56.14 25.24L56.14 4.57L59.47 4.57L59.47 25.24Z" fill="#F4F5F6" fill-opacity="1.000000" fill-rule="nonzero"/>
		<path id="Vector" d="M62.44 25.24L62.44 11.51L65.8 11.51L65.8 25.24L62.44 25.24ZM64.09 8.76C63.52 8.76 63.04 8.57 62.63 8.18C62.25 7.77 62.06 7.28 62.06 6.71C62.06 6.13 62.25 5.65 62.63 5.26C63.04 4.87 63.52 4.68 64.09 4.68C64.66 4.68 65.14 4.87 65.53 5.26C65.93 5.65 66.13 6.13 66.13 6.71C66.13 7.28 65.93 7.77 65.53 8.18C65.14 8.57 64.66 8.76 64.09 8.76Z" fill="#F4F5F6" fill-opacity="1.000000" fill-rule="nonzero"/>
		<path id="Vector" d="M67.95 18.07C67.95 16.74 68.22 15.55 68.75 14.52C69.3 13.46 70.06 12.63 71.03 12.01C72.01 11.4 73.13 11.1 74.42 11.1C75.58 11.1 76.57 11.36 77.39 11.88C78.22 12.38 78.8 13.08 79.13 13.99L78.77 14.29L79.05 11.51L82.16 11.51L82.16 24.55C82.16 26.07 81.86 27.38 81.28 28.49C80.71 29.62 79.89 30.49 78.82 31.08C77.78 31.69 76.51 32 75.03 32C73.08 32 71.48 31.47 70.23 30.41C68.99 29.36 68.25 27.91 68.03 26.08L71.39 26.08C71.5 26.97 71.87 27.66 72.49 28.16C73.13 28.66 73.98 28.91 75.03 28.91C76.18 28.91 77.1 28.57 77.78 27.88C78.48 27.22 78.82 26.31 78.82 25.16L78.82 21.74L79.21 22.1C78.88 22.97 78.27 23.67 77.39 24.19C76.51 24.7 75.49 24.96 74.34 24.96C73.05 24.96 71.93 24.67 70.98 24.07C70.02 23.48 69.28 22.67 68.75 21.63C68.22 20.59 67.95 19.41 67.95 18.07ZM71.34 17.99C71.34 18.77 71.48 19.46 71.78 20.07C72.09 20.67 72.52 21.14 73.07 21.49C73.62 21.84 74.26 22.02 75 22.02C75.77 22.02 76.43 21.85 76.98 21.52C77.55 21.17 77.98 20.69 78.27 20.1C78.59 19.49 78.74 18.79 78.74 17.99C78.74 17.19 78.6 16.51 78.3 15.93C78.01 15.34 77.58 14.88 77.01 14.54C76.46 14.21 75.79 14.04 75 14.04C74.25 14.04 73.59 14.22 73.04 14.57C72.49 14.9 72.07 15.37 71.78 15.96C71.48 16.55 71.34 17.23 71.34 17.99Z" fill="#F4F5F6" fill-opacity="1.000000" fill-rule="nonzero"/>
		<path id="Vector" d="M88.44 25.24L85.08 25.24L85.08 11.51L88.19 11.51L88.47 13.29C88.89 12.61 89.49 12.07 90.26 11.68C91.05 11.29 91.9 11.1 92.82 11.1C94.53 11.1 95.81 11.61 96.67 12.63C97.55 13.64 98 15.03 98 16.79L98 25.24L94.64 25.24L94.64 17.6C94.64 16.45 94.38 15.6 93.87 15.04C93.35 14.47 92.65 14.18 91.77 14.18C90.73 14.18 89.91 14.52 89.32 15.18C88.73 15.85 88.44 16.74 88.44 17.85L88.44 25.24Z" fill="#F4F5F6" fill-opacity="1.000000" fill-rule="nonzero"/>
	</g>
</svg>
